<?xml version="1.0" encoding="utf-8"?>
<!-- Generator: Adobe Illustrator 16.0.0, SVG Export Plug-In . SVG Version: 6.00 Build 0)  -->
<!DOCTYPE svg PUBLIC "-//W3C//DTD SVG 1.1//EN" "http://www.w3.org/Graphics/SVG/1.1/DTD/svg11.dtd">
<svg version="1.1" id="Calque_1" xmlns="http://www.w3.org/2000/svg" xmlns:xlink="http://www.w3.org/1999/xlink" x="0px" y="0px"
	 width="100px" height="100px" viewBox="0 0 100 100" enable-background="new 0 0 100 100" xml:space="preserve">
<g id="Calque_14">
	<path fill="#E2B95A" d="M50,0c27.613,0,50,22.386,50,50s-22.387,50-50,50C22.386,100,0,77.614,0,50S22.386,0,50,0z"/>
</g>
<ellipse opacity="0.2" fill="#B28E46" enable-background="new    " cx="46.018" cy="77.871" rx="21.264" ry="5.191"/>
<g id="Calque_1_1_">
	<path display="none" fill="#324D5B" d="M50,0c27.613,0,50,22.386,50,50c0,27.615-22.387,50-50,50C22.386,100,0,77.615,0,50
		C0,22.387,22.386,0,50,0z"/>
</g>
<g id="lampe">
	<g id="pied">
		<g id="pied_articulé">
			<path fill="#5B717C" d="M48.562,37.653L53,38.438c0,0,0.75,1.004,1.25,1.252s3.906,2.498,3.906,2.498l-0.219,0.28l-0.062,0.47
				l5.156,6.562c0,0,0.625,0.969,1.031,0.906c0.404-0.063,1.06-0.031,1.062,5.281l0.625,5.875l-8.062,7l0.25,0.625
				c0,0-1.096,0.438-1.125,1.344h-2.346V69.5l-4.594-3.406l-0.562-0.062l-0.969-1.25l2.062-1.97l-0.75-0.938l1.407-1.281
				l0.905,0.938l5.5-4.75c0,0-0.062-0.406,0.25-0.75c0.312-0.346-5.5-8.5-5.5-8.5l-1.125-0.125l-0.03-6.821l-3.375-0.522
				L48.562,37.653z"/>
		</g>
		<g id="tête">
			<path fill="#5B717C" d="M45.375,28.75c-1.443,0.173-3.727,3.375-6.707,3.062c0,0-7.45,0.466-9.168,3.25
				c-1.812,2.938,3.125,9.562,4.5,10.5c0,0,6.688,6.312,10.062,4.875s3.875-9.375,3.625-10.375s2.25-4.625,2.938-5.875
				C51.312,32.937,48.5,28.375,45.375,28.75z"/>
		</g>

			<ellipse transform="matrix(-0.6879 0.7258 -0.7258 -0.6879 93.8951 44.5508)" fill="#F4F0D3" cx="37.369" cy="42.464" rx="3.912" ry="9.932"/>
		<g id="ampoule">
			<path fill="#E1EEE8" d="M35.604,44.803c-2.277-2.162-2.369-5.759-0.208-8.035c0.087-0.092,0.185-0.167,0.277-0.251
				c1.458,1.154,2.907,2.412,4.278,3.713c1.369,1.3,2.697,2.682,3.925,4.076c-0.079,0.096-0.15,0.197-0.237,0.289
				C41.477,46.872,37.879,46.965,35.604,44.803z"/>
			<path fill="#D3DDD8" d="M37.891,44.225c-2.036-1.482-2.468-4.415-1.119-6.821c-0.478-0.301-0.955-0.606-1.436-0.886
				c-0.078,0.095-0.162,0.183-0.236,0.285c-1.82,2.503-1.499,5.841,0.719,7.456c1.116,0.811,2.5,1.03,3.831,0.732
				C39.028,44.864,38.427,44.613,37.891,44.225z"/>
			<g id="ampoule_1_">
			</g>
		</g>
		<g id="socle">
			<path fill="#5B717C" d="M53.188,73.375c-0.199,0.386-0.414,0.886-1.625,1c-7.043,0.668-9.564-0.266-10.5,2.188h29.25
				c0,0-1-2.104-6.188-2.062c-3.281,0.026-3.914-0.021-4.75-0.062c-0.734-0.037-0.875,0.25-1.5-0.812s-0.625-2.938-0.625-2.938
				h-3.125C54.125,70.688,54,71.812,53.188,73.375z"/>
		</g>
		<g id="Calque_10">

				<rect x="53.724" y="60.086" transform="matrix(0.7425 -0.6699 0.6699 0.7425 -27.1422 54.7195)" fill="#E2B95A" width="7.747" height="5.151"/>
		</g>
		<g id="Calque_11">
			<polygon fill="#E2B95A" points="53.719,41.781 53.25,47 58.719,55.406 59.719,55.25 61.75,56.719 62.75,51.062 57,43.812
				56.719,43.906 			"/>
		</g>
		<g id="Calque_12">
			<ellipse fill="#FFFFFF" cx="52.412" cy="39.902" rx="0.591" ry="0.567"/>
			<ellipse fill="#FFFFFF" cx="52.412" cy="46.433" rx="0.591" ry="0.567"/>
			<ellipse fill="#FFFFFF" cx="63.893" cy="51.491" rx="0.592" ry="0.567"/>
			<ellipse fill="#FFFFFF" cx="64.052" cy="61.235" rx="0.591" ry="0.567"/>
			<ellipse fill="#FFFFFF" cx="59.287" cy="56.719" rx="0.591" ry="0.567"/>
			<ellipse fill="#FFFFFF" cx="50.379" cy="64.817" rx="0.592" ry="0.567"/>
			<ellipse fill="#FFFFFF" cx="55.998" cy="68.836" rx="0.591" ry="0.566"/>
			<ellipse fill="#FFFFFF" cx="56.85" cy="42.467" rx="0.59" ry="0.567"/>
		</g>
		<g id="Calque_13">
			<path fill="#FFFFFF" d="M46.542,30.833c-0.584,0.375,1.459-0.958,0.5,0.333s-2.314,1.625-2.574,1.5
				C44.208,32.541,46.542,30.833,46.542,30.833z"/>
			<path fill="#F4F0D3" d="M48.36,32.188c-0.391,0.498,0.815-0.889,0.367,0.208c-0.446,1.095-1.721,2.335-1.978,2.437
				C46.493,34.935,48.36,32.188,48.36,32.188z"/>
			<path fill="#F4F0D3" d="M49.309,33.846c-0.277,0.493,0.589-0.909,0.313,0.067c-0.273,0.974-1.209,2.28-1.408,2.426
				C48.014,36.487,49.309,33.846,49.309,33.846z"/>
			<path fill="#F4F0D3" d="M45.221,29.899c-0.444,0.35,0.891-0.616,0.264,0.182c-0.624,0.796-2.787,1.5-3.026,1.56
				C42.217,31.7,45.221,29.899,45.221,29.899z"/>
		</g>
	</g>
</g>
</svg>
